<svg xmlns="http://www.w3.org/2000/svg" xmlns:xlink="http://www.w3.org/1999/xlink" version="1.1" x="0px" y="0px" viewBox="0 0 100 125" style="enable-background:new 0 0 100 100;" xml:space="preserve"><g><circle cx="15.3" cy="39.5" r="3.9"/><circle cx="15.3" cy="48.3" r="1.8"/><circle cx="15.3" cy="54.6" r="1.8"/><circle cx="12.2" cy="51.4" r="1.8"/><circle cx="18.5" cy="51.4" r="1.8"/><path d="M84.5,29.7h-7.6h-1.1H24.2h-1.1h-7.6c-5,0-9,4-9,9v22.5c0,5,4,9,9,9h7.6h1.1h51.6h1.1h7.6c5,0,9-4,9-9V38.7   C93.6,33.8,89.5,29.7,84.5,29.7z M92.4,61.3c0,4.4-3.5,7.9-7.9,7.9h-7.6V30.8h7.6c4.4,0,7.9,3.5,7.9,7.9V61.3z M75.8,69.2H24.2   V30.8h51.6V69.2z M23.1,69.2h-7.6c-4.4,0-7.9-3.5-7.9-7.9V38.7c0-4.4,3.5-7.9,7.9-7.9h7.6V69.2z"/><circle cx="84.7" cy="52.5" r="3.9"/><circle cx="84.7" cy="43.7" r="1.8"/><circle cx="84.7" cy="37.4" r="1.8"/><circle cx="87.8" cy="40.5" r="1.8"/><circle cx="81.5" cy="40.5" r="1.8"/><path d="M73,33.7H27v32.7h46V33.7z M71.9,65.2H28.1V34.8h43.7V65.2z"/></g><text x="0" y="115" fill="#000000" font-size="5px" font-weight="bold" font-family="'Helvetica Neue', Helvetica, Arial-Unicode, Arial, Sans-serif">Created by mikicon</text><text x="0" y="120" fill="#000000" font-size="5px" font-weight="bold" font-family="'Helvetica Neue', Helvetica, Arial-Unicode, Arial, Sans-serif">from the Noun Project</text></svg>