<?xml version="1.0" encoding="UTF-8" standalone="no"?>
<svg
   xmlns:dc="http://purl.org/dc/elements/1.1/"
   xmlns:cc="http://creativecommons.org/ns#"
   xmlns:rdf="http://www.w3.org/1999/02/22-rdf-syntax-ns#"
   xmlns:svg="http://www.w3.org/2000/svg"
   xmlns="http://www.w3.org/2000/svg"
   id="svg1312"
   version="1.1"
   viewBox="0 0 100 100"
   height="100mm"
   width="100mm">
  <defs
     id="defs1306" />
  <metadata
     id="metadata1309">
    <rdf:RDF>
      <cc:Work
         rdf:about="">
        <dc:format>image/svg+xml</dc:format>
        <dc:type
           rdf:resource="http://purl.org/dc/dcmitype/StillImage" />
        <dc:title></dc:title>
      </cc:Work>
    </rdf:RDF>
  </metadata>
  <g
     id="layer1">
    <g
       transform="matrix(1.0694982,0,0,1.0694982,0,-31.764097)"
       id="g1367">
      <g
         style="fill:none;stroke:#000000"
         transform="matrix(1.0747111,0,0,1.0747111,-6.9856222,-2.2189206)"
         id="g1338">
        <path
           style="fill:none;stroke:#000000"
           d="m 19.2,39.5 a 3.9000001,3.9000001 0 0 1 -3.9,3.9 3.9000001,3.9000001 0 0 1 -3.9,-3.9 3.9000001,3.9000001 0 0 1 3.9,-3.9 3.9000001,3.9000001 0 0 1 3.9,3.9"
           id="circle1314" />
        <path
           style="fill:none;stroke:#000000"
           d="m 17.1,48.299999 a 1.8,1.8 0 0 1 -1.8,1.8 1.8,1.8 0 0 1 -1.8,-1.8 1.8,1.8 0 0 1 1.8,-1.8 1.8,1.8 0 0 1 1.8,1.8"
           id="circle1316" />
        <path
           style="fill:none;stroke:#000000"
           d="m 17.1,54.599998 a 1.8,1.8 0 0 1 -1.8,1.8 1.8,1.8 0 0 1 -1.8,-1.8 1.8,1.8 0 0 1 1.8,-1.799999 1.8,1.8 0 0 1 1.8,1.799999"
           id="circle1318" />
        <path
           style="fill:none;stroke:#000000"
           d="m 14,51.400002 a 1.8,1.8 0 0 1 -1.8,1.799999 1.8,1.8 0 0 1 -1.8,-1.799999 1.8,1.8 0 0 1 1.8,-1.8 1.8,1.8 0 0 1 1.8,1.8"
           id="circle1320" />
        <path
           style="fill:none;stroke:#000000"
           d="m 20.3,51.400002 a 1.8,1.8 0 0 1 -1.8,1.799999 1.8,1.8 0 0 1 -1.8,-1.799999 1.8,1.8 0 0 1 1.8,-1.8 1.8,1.8 0 0 1 1.8,1.8"
           id="circle1322" />
        <path
           style="fill:none;stroke:#000000"
           d="M 84.5,29.7 H 76.9 75.8 24.2 23.1 15.5 c -5,0 -9,4 -9,9 v 22.5 c 0,5 4,9 9,9 h 7.6 1.1 51.6 1.1 7.6 c 5,0 9,-4 9,-9 V 38.7 c 0.1,-4.9 -4,-9 -9,-9 z m 7.9,31.6 c 0,4.4 -3.5,7.9 -7.9,7.9 H 76.9 V 30.8 h 7.6 c 4.4,0 7.9,3.5 7.9,7.9 z M 75.8,69.2 H 24.2 V 30.8 h 51.6 z m -52.7,0 h -7.6 c -4.4,0 -7.9,-3.5 -7.9,-7.9 V 38.7 c 0,-4.4 3.5,-7.9 7.9,-7.9 h 7.6 z"
           id="path1324" />
        <path
           style="fill:none;stroke:#000000"
           d="m 88.599997,52.5 a 3.9000001,3.9000001 0 0 1 -3.9,3.9 3.9000001,3.9000001 0 0 1 -3.9,-3.9 3.9000001,3.9000001 0 0 1 3.9,-3.9 3.9000001,3.9000001 0 0 1 3.9,3.9"
           id="circle1326" />
        <path
           style="fill:none;stroke:#000000"
           d="m 86.499997,43.700001 a 1.8,1.8 0 0 1 -1.8,1.8 1.8,1.8 0 0 1 -1.8,-1.8 1.8,1.8 0 0 1 1.8,-1.8 1.8,1.8 0 0 1 1.8,1.8"
           id="circle1328" />
        <path
           style="fill:none;stroke:#000000"
           d="m 86.499997,37.400002 a 1.8,1.8 0 0 1 -1.8,1.799999 1.8,1.8 0 0 1 -1.8,-1.799999 1.8,1.8 0 0 1 1.8,-1.8 1.8,1.8 0 0 1 1.8,1.8"
           id="circle1330" />
        <path
           style="fill:none;stroke:#000000"
           d="m 89.600003,40.5 a 1.8,1.8 0 0 1 -1.8,1.8 1.8,1.8 0 0 1 -1.8,-1.8 1.8,1.8 0 0 1 1.8,-1.8 1.8,1.8 0 0 1 1.8,1.8"
           id="circle1332" />
        <path
           style="fill:none;stroke:#000000"
           d="m 83.3,40.5 a 1.8,1.8 0 0 1 -1.8,1.8 1.8,1.8 0 0 1 -1.8,-1.8 1.8,1.8 0 0 1 1.8,-1.8 1.8,1.8 0 0 1 1.8,1.8"
           id="circle1334" />
        <path
           style="fill:none;stroke:#000000"
           d="M 73,33.7 H 27 V 66.4 H 73 Z M 71.9,65.2 H 28.1 V 34.8 h 43.7 v 30.4 z"
           id="path1336" />
      </g>
      <g
         style="font-weight:bold;font-size:5px;font-family:'Helvetica Neue', Helvetica, Arial-Unicode, Arial, Sans-serif;fill:#000000"
         id="text1340"
         aria-label="Created by mikicon" />
    </g>
  </g>
</svg>
